<svg id="Layer_1" data-name="Layer 1" xmlns="http://www.w3.org/2000/svg" viewBox="0 0 180 180"><defs><style>.cls-1{fill:#36f;}.cls-2{fill:#fff;}</style></defs><title>Artboard 8</title><rect class="cls-1" width="180" height="180"/><path class="cls-2" d="M36,117.92V62.08q0-2.79,5.23-2.79h4.62q4.19,0,5.5,2.36L66.71,89,82.24,61.65q1.31-2.36,5.5-2.36h4.54q5.24,0,5.24,2.79l-26,42.22A4.07,4.07,0,0,1,68,106H65.49A4.07,4.07,0,0,1,62,104.31L49.35,81.71,49,81.8v36.12q0,2.79-5.23,2.79H41.23Q36,120.71,36,117.92Z"/><path class="cls-2" d="M82.5,62.08q0-2.79,5.24-2.79h4.62q4.19,0,5.5,2.36L113.2,89l15.53-27.31q1.31-2.36,5.5-2.36h4.54q5.24,0,5.24,2.79v55.83q0,2.79-5.24,2.79h-2.53q-5.23,0-5.23-2.79V81.8l-.35-.09L118,104.31a4.07,4.07,0,0,1-3.49,1.66H112a4.07,4.07,0,0,1-3.49-1.66Z"/></svg>