<?xml version="1.0" encoding="UTF-8"?>
<svg width="200px" height="100px" viewBox="0 0 200 100" version="1.1" xmlns="http://www.w3.org/2000/svg" xmlns:xlink="http://www.w3.org/1999/xlink">
    <!-- Generator: Sketch 42 (36781) - http://www.bohemiancoding.com/sketch -->
    <title>Artboard</title>
    <desc>Created with Sketch.</desc>
    <defs></defs>
    <g id="Page-1" stroke="none" stroke-width="1" fill="none" fill-rule="evenodd">
        <g id="Artboard" fill-rule="nonzero">
            <g id="logo_pelgrim-mediation-copy" transform="translate(0.000000, 42.000000)">
                <path d="M0.088,15.648 L0.088,1.376 C0.05285513,1.12711762 0.136723337,0.876188107 0.314455722,0.698455722 C0.492188107,0.520723337 0.743117619,0.43685513 0.992,0.472 L5.752,0.472 C7.23652942,0.375927185 8.70250467,0.844582041 9.856,1.784 C10.2635424,2.20082188 10.5772246,2.69998573 10.776,3.248 C11.0382533,3.94568948 11.1658399,4.68677799 11.152,5.432 C11.167105,6.18262819 11.0197383,6.9276485 10.72,7.616 C10.4857243,8.16815695 10.1334901,8.66237701 9.688,9.064 C9.27643248,9.40026403 8.81487017,9.6701835 8.32,9.864 C7.58190788,10.1825388 6.78784605,10.351141 5.984,10.36 L3.584,10.36 L3.584,15.616 C3.584,16.1013333 3.13066667,16.344 2.224,16.344 L1.424,16.344 C0.533333333,16.3653333 0.088,16.1333333 0.088,15.648 Z M3.576,7.4 L5.6,7.4 C6.0989337,7.41337422 6.5883034,7.26150086 6.992,6.968 C7.42102602,6.57584273 7.63535052,6.00133401 7.568,5.424 C7.63270321,4.84463033 7.41902054,4.26887426 6.992,3.872 C6.58969668,3.57573102 6.09935242,3.42355522 5.6,3.44 L3.576,3.44 L3.576,7.4 Z" id="Shape" fill="#FFFFFF"></path>
                <path d="M13,15.424 L13,1.376 C12.9648551,1.12711762 13.0487233,0.876188107 13.2264557,0.698455722 C13.4041881,0.520723337 13.6551176,0.43685513 13.904,0.472 L22.2,0.472 C22.6533333,0.472 22.88,0.850666667 22.88,1.608 L22.88,2.312 C22.88,3.06933333 22.6533333,3.448 22.2,3.448 L16.488,3.448 L16.488,6.72 L21.6,6.72 C22.0533333,6.72 22.28,7.09866667 22.28,7.856 L22.28,8.56 C22.28,9.31733333 22.0533333,9.696 21.6,9.696 L16.488,9.696 L16.488,13.36 L22.224,13.36 C22.6773333,13.36 22.904,13.7386667 22.904,14.496 L22.904,15.2 C22.904,15.9573333 22.6773333,16.336 22.224,16.336 L13.904,16.336 C13.6535219,16.3717563 13.4008929,16.2869134 13.2227725,16.1072167 C13.0446521,15.92752 12.9620383,15.6741534 13,15.424 L13,15.424 Z" id="Shape" fill="#FFFFFF"></path>
                <path d="M25.376,15.424 L25.376,1.152 C25.376,0.666666667 25.8293333,0.424 26.736,0.424 L27.536,0.424 C28.4426667,0.424 28.896,0.666666667 28.896,1.152 L28.896,13.36 L33.952,13.36 C34.4053333,13.36 34.632,13.7386667 34.632,14.496 L34.632,15.2 C34.632,15.9573333 34.4053333,16.336 33.952,16.336 L26.28,16.336 C26.0295219,16.3717563 25.7768929,16.2869134 25.5987725,16.1072167 C25.4206521,15.92752 25.3380383,15.6741534 25.376,15.424 L25.376,15.424 Z" id="Shape" fill="#FFFFFF"></path>
                <path d="M35.792,8.352 C35.792,2.976 38.3146667,0.288 43.36,0.288 C44.4591822,0.288 45.5527851,0.444228996 46.608,0.752 C47.6746667,1.06133333 48.208,1.43466667 48.208,1.872 C48.156635,2.35459239 47.9740241,2.81388653 47.68,3.2 C47.3226667,3.73333333 47.008,4 46.736,4 C46.5647731,3.95590565 46.398558,3.89424521 46.24,3.816 C45.3065596,3.43400202 44.3043131,3.2488043 43.296,3.272 C40.6826667,3.272 39.376,4.984 39.376,8.408 C39.376,11.832 40.6666667,13.544 43.248,13.544 C43.8409781,13.5446631 44.4327749,13.4911068 45.016,13.384 L45.016,10.504 L43.024,10.504 C42.5706667,10.504 42.344,10.1253333 42.344,9.368 L42.344,8.64 C42.344,7.88266667 42.5706667,7.504 43.024,7.504 L47.624,7.504 C47.8728824,7.46885513 48.1238119,7.55272334 48.3015443,7.73045572 C48.4792767,7.90818811 48.5631449,8.15911762 48.528,8.408 L48.528,14.72 C48.5131837,15.1092952 48.2942868,15.4619624 47.952,15.648 C47.4991034,15.9305838 46.9923645,16.1158432 46.464,16.192 C45.4099771,16.4004586 44.3384301,16.5076133 43.264,16.512 C40.7253333,16.512 38.8586667,15.8506667 37.664,14.528 C36.4693333,13.2053333 35.8453333,11.1466667 35.792,8.352 Z" id="Shape" fill="#FFFFFF"></path>
                <path d="M51.568,15.648 L51.568,1.376 C51.5328551,1.12711762 51.6167233,0.876188107 51.7944557,0.698455722 C51.9721881,0.520723337 52.2231176,0.43685513 52.472,0.472 L56.888,0.472 C60.648,0.472 62.528,1.89066667 62.528,4.728 C62.544487,5.52294561 62.2937746,6.30043586 61.816,6.936 C61.3190208,7.57762527 60.6464753,8.06119103 59.88,8.328 L59.88,8.416 C60.2381991,8.58272726 60.5429083,8.84588524 60.76,9.176 C61.064799,9.58436159 61.3149173,10.0308094 61.504,10.504 L63.496,15.488 C63.5564574,15.624993 63.5942824,15.7708893 63.608,15.92 C63.608,16.224 63.1546667,16.376 62.248,16.376 L61.32,16.376 C60.5626667,16.376 60.1253333,16.2186667 60.008,15.904 L58.216,11.488 C58.0368403,11.0775445 57.7626286,10.7155851 57.416,10.432 C56.9673365,10.192132 56.4590709,10.0865905 55.952,10.128 L55.072,10.128 L55.072,15.656 C55.072,16.1413333 54.6186667,16.384 53.712,16.384 L52.912,16.384 C52.016,16.3786667 51.568,16.1333333 51.568,15.648 Z M55.056,7.104 L57.208,7.104 C57.6672981,7.09709559 58.1014744,6.89312014 58.4,6.544 C58.7441841,6.17269215 58.9306357,5.68218088 58.92,5.176 C58.9488682,4.69664956 58.7609058,4.22968039 58.408,3.904 C58.0199401,3.57785239 57.5221365,3.41191788 57.016,3.44 L55.056,3.44 L55.056,7.104 Z" id="Shape" fill="#FFFFFF"></path>
                <path d="M65.256,15.648 L65.256,1.152 C65.256,0.656 65.7093333,0.408 66.616,0.408 L67.416,0.408 C68.3226667,0.408 68.776,0.656 68.776,1.152 L68.776,15.648 C68.776,16.144 68.3226667,16.392 67.416,16.392 L66.616,16.392 C65.7093333,16.3973333 65.256,16.1493333 65.256,15.648 Z" id="Shape" fill="#FFFFFF"></path>
                <path d="M71.776,15.648 L71.776,1.152 C71.776,0.666666667 72.2293333,0.424 73.136,0.424 L74.336,0.424 C74.8870337,0.34429545 75.436463,0.578883231 75.76,1.032 L79.76,8.128 L83.76,1.032 C84.083537,0.578883231 84.6329663,0.34429545 85.184,0.424 L86.4,0.424 C87.3066667,0.424 87.76,0.666666667 87.76,1.152 L81.008,12.12 C80.7985082,12.4068836 80.4588136,12.5692156 80.104,12.552 L79.448,12.552 C79.0931864,12.5692156 78.7534918,12.4068836 78.544,12.12 L75.256,6.248 L75.168,6.248 L75.168,15.648 C75.168,16.1333333 74.7146667,16.376 73.808,16.376 L73.152,16.376 C72.2346667,16.376 71.776,16.1333333 71.776,15.648 Z" id="Shape" fill="#3366FF"></path>
                <path d="M83.856,1.152 C83.856,0.666666667 84.3093333,0.424 85.216,0.424 L86.4,0.424 C86.9510337,0.34429545 87.500463,0.578883231 87.824,1.032 L91.824,8.128 L95.824,1.032 C96.147537,0.578883231 96.6969663,0.34429545 97.248,0.424 L98.424,0.424 C99.3306667,0.424 99.784,0.666666667 99.784,1.152 L99.784,15.648 C99.784,16.1333333 99.3306667,16.376 98.424,16.376 L97.768,16.376 C96.8613333,16.376 96.408,16.1333333 96.408,15.648 L96.408,6.272 L96.32,6.272 L93.032,12.144 C92.8225082,12.4308836 92.4828136,12.5932156 92.128,12.576 L91.472,12.576 C91.1171864,12.5932156 90.7774918,12.4308836 90.568,12.144 L83.856,1.152 Z" id="Shape" fill="#3366FF"></path>
                <path d="M102.96,15.424 L102.96,1.376 C102.924855,1.12711762 103.008723,0.876188107 103.186456,0.698455722 C103.364188,0.520723337 103.615118,0.43685513 103.864,0.472 L112.16,0.472 C112.613333,0.472 112.84,0.850666667 112.84,1.608 L112.84,2.312 C112.84,3.06933333 112.613333,3.448 112.16,3.448 L106.448,3.448 L106.448,6.72 L111.544,6.72 C111.997333,6.72 112.224,7.09866667 112.224,7.856 L112.224,8.56 C112.224,9.31733333 111.997333,9.696 111.544,9.696 L106.448,9.696 L106.448,13.36 L112.184,13.36 C112.637333,13.36 112.864,13.7386667 112.864,14.496 L112.864,15.2 C112.864,15.9573333 112.637333,16.336 112.184,16.336 L103.864,16.336 C103.613522,16.3717563 103.360893,16.2869134 103.182773,16.1072167 C103.004652,15.92752 102.922038,15.6741534 102.96,15.424 L102.96,15.424 Z" id="Shape" fill="#FFFFFF"></path>
                <path d="M115.328,15.424 L115.328,1.376 C115.292855,1.12711762 115.376723,0.876188107 115.554456,0.698455722 C115.732188,0.520723337 115.983118,0.43685513 116.232,0.472 L121.304,0.472 C123.311178,0.338689197 125.276851,1.08640436 126.688,2.52 C127.936,3.88533333 128.56,5.84533333 128.56,8.4 C128.56,10.9546667 127.936,12.9146667 126.688,14.28 C125.276851,15.7135956 123.311178,16.4613108 121.304,16.328 L116.232,16.328 C115.983118,16.3631449 115.732188,16.2792767 115.554456,16.1015443 C115.376723,15.9238119 115.292855,15.6728824 115.328,15.424 Z M118.84,13.36 L121.312,13.36 C122.381967,13.4222792 123.412065,12.9447701 124.056,12.088 C124.745665,10.9839694 125.070339,9.69087138 124.984,8.392 C125.070339,7.09312862 124.745665,5.80003063 124.056,4.696 C123.412065,3.83922989 122.381967,3.36172076 121.312,3.424 L118.84,3.424 L118.84,13.36 Z" id="Shape" fill="#FFFFFF"></path>
                <path d="M130.944,15.648 L130.944,1.152 C130.944,0.656 131.397333,0.408 132.304,0.408 L133.104,0.408 C134.010667,0.408 134.464,0.656 134.464,1.152 L134.464,15.648 C134.464,16.144 134.010667,16.392 133.104,16.392 L132.304,16.392 C131.397333,16.3973333 130.944,16.1493333 130.944,15.648 Z" id="Shape" fill="#FFFFFF"></path>
                <path d="M135.904,15.88 C135.919362,15.741358 135.948849,15.6046482 135.992,15.472 L140.976,0.904 C141.098667,0.584 141.528,0.426666667 142.264,0.432 L143.44,0.432 C144.181333,0.432 144.610667,0.589333333 144.728,0.904 L149.712,15.472 C149.755651,15.6037908 149.779905,15.7412289 149.784,15.88 C149.784,16.2106667 149.405333,16.376 148.648,16.376 L147.648,16.376 C146.906667,16.376 146.482667,16.2186667 146.376,15.904 L145.472,13.136 L140.128,13.136 L139.2,15.904 C139.093333,16.224 138.746667,16.3813333 138.16,16.376 L137.256,16.376 C136.354667,16.376 135.904,16.2106667 135.904,15.88 Z M141.112,10.144 L144.512,10.144 L143.224,6.144 L142.888,4.696 L142.8,4.696 C142.715854,5.18541155 142.60096,5.66903601 142.456,6.144 L141.112,10.144 Z" id="Shape" fill="#FFFFFF"></path>
                <path d="M154.256,15.648 L154.256,3.44 L150.656,3.44 C150.202667,3.44 149.976,3.06133333 149.976,2.304 L149.976,1.6 C149.976,0.842666667 150.202667,0.464 150.656,0.464 L161.376,0.464 C161.829333,0.464 162.056,0.842666667 162.056,1.6 L162.056,2.304 C162.056,3.06133333 161.829333,3.44 161.376,3.44 L157.776,3.44 L157.776,15.648 C157.776,16.1333333 157.322667,16.376 156.416,16.376 L155.616,16.376 C154.709333,16.376 154.256,16.1333333 154.256,15.648 Z" id="Shape" fill="#FFFFFF"></path>
                <path d="M163.664,15.648 L163.664,1.152 C163.664,0.656 164.117333,0.408 165.024,0.408 L165.824,0.408 C166.730667,0.408 167.184,0.656 167.184,1.152 L167.184,15.648 C167.184,16.144 166.730667,16.392 165.824,16.392 L165.024,16.392 C164.117333,16.3973333 163.664,16.1493333 163.664,15.648 Z" id="Shape" fill="#FFFFFF"></path>
                <path d="M171.52,14.4 C170.266667,13.0026667 169.64,10.9973333 169.64,8.384 C169.64,5.77066667 170.266667,3.776 171.52,2.4 C174.573335,-0.382002959 179.242665,-0.382002959 182.296,2.4 C183.544,3.79733333 184.168,5.80266667 184.168,8.416 C184.168,11.0293333 183.544,13.024 182.296,14.4 C179.242665,17.182003 174.573335,17.182003 171.52,14.4 Z M174.16,12.216 C174.829704,13.0477852 175.840119,13.531472 176.908,13.531472 C177.975881,13.531472 178.986296,13.0477852 179.656,12.216 C180.348075,11.0628624 180.671823,9.7260065 180.584,8.384 C180.672124,7.04703485 180.348238,5.71519166 179.656,4.568 C178.981355,3.74425268 177.972756,3.26659992 176.908,3.26659992 C175.843244,3.26659992 174.834645,3.74425268 174.16,4.568 C173.458285,5.71177298 173.128476,7.04498548 173.216,8.384 C173.125479,9.73339736 173.455266,11.0776965 174.16,12.232 L174.16,12.216 Z" id="Shape" fill="#FFFFFF"></path>
                <path d="M186.752,15.648 L186.752,1.152 C186.752,0.666666667 187.205333,0.424 188.112,0.424 L189.088,0.424 C189.658178,0.354903972 190.22368,0.584733816 190.584,1.032 L196.544,10.208 L196.544,1.152 C196.544,0.666666667 196.997333,0.424 197.904,0.424 L198.56,0.424 C199.466667,0.424 199.92,0.666666667 199.92,1.152 L199.92,15.648 C199.92,16.1333333 199.466667,16.376 198.56,16.376 L197.696,16.376 C197.125822,16.445096 196.56032,16.2152662 196.2,15.768 L190.128,6.48 L190.128,15.648 C190.128,16.1333333 189.674667,16.376 188.768,16.376 L188.112,16.376 C187.205333,16.376 186.752,16.1333333 186.752,15.648 Z" id="Shape" fill="#FFFFFF"></path>
            </g>
        </g>
    </g>
</svg>